# Blender 4.3.2
# www.blender.org
o Sphere
v -0.138972 0.375998 -1.513857
v -0.067757 -0.259674 -1.352169
v -0.041208 -0.430520 -1.061089
v -0.002012 -0.919100 -0.387969
v 0.160688 1.443088 -0.346590
v 0.411040 1.088078 -1.014773
v 0.558553 0.364619 -1.293291
v 0.498149 -0.180634 -1.187509
v 0.337576 -0.363178 -0.974735
v 0.253571 -0.666671 -0.698002
v 0.144858 -0.920106 -0.357726
v 0.392314 1.356996 -0.181334
v 0.815459 0.966730 -0.611180
v 0.957635 0.375902 -0.823746
v 0.802388 -0.023760 -0.843741
v 0.620243 -0.302481 -0.746329
v 0.489364 -0.681849 -0.527934
v 0.269938 -0.922313 -0.272331
v 0.500715 1.256348 0.002555
v 0.907753 0.874013 -0.238195
v 0.984438 0.442489 -0.420838
v 0.897863 0.087620 -0.487539
v 0.835346 -0.339444 -0.401374
v 0.649321 -0.697701 -0.281000
v 0.353532 -0.923828 -0.146503
v 0.489313 1.171591 0.147440
v 0.792709 0.833798 -0.000680
v 0.895351 0.479042 -0.091777
v 0.979452 0.049411 -0.015731
v 0.917731 -0.367448 0.023379
v 0.706429 -0.705219 0.015545
v 0.382667 -0.923828 0.000675
v 0.399489 1.113413 0.246788
v 0.631835 0.814985 0.235135
v 0.953336 0.428780 0.441079
v 1.451078 -0.022843 0.444073
v 1.030591 -0.391858 0.516405
v 0.650682 -0.699146 0.375140
v 0.353148 -0.922639 0.162734
v 0.269655 1.078598 0.324540
v 0.464722 0.793327 0.559599
v 0.711721 0.530949 0.856025
v 1.359355 -0.022136 0.721479
v 0.735313 -0.482224 0.867190
v 0.494701 -0.690879 0.713109
v 0.269632 -0.920922 0.309443
v 0.118975 1.059808 0.378712
v 0.242786 0.776384 0.802373
v 0.318087 0.709019 1.095721
v 0.328769 0.139836 1.385515
v 0.322797 -0.659758 1.111771
v 0.264076 -0.687135 0.915559
v 0.145223 -0.920133 0.402755
v -0.048546 1.053577 0.400638
v -0.081788 0.775584 0.839907
v -0.186411 0.564760 1.188362
v -0.355432 0.094789 1.277161
v -0.142378 -0.454014 1.184448
v -0.006061 -0.689238 0.917820
v -0.000966 -0.920922 0.421529
v 0.000000 -1.000000 0.000000
v -0.069318 1.332662 0.223646
v -0.236538 1.061296 0.397835
v -0.473226 0.791807 0.710204
v -0.566902 0.464234 1.060532
v -0.495422 0.091457 1.119648
v -0.381186 -0.331202 1.018307
v -0.273384 -0.698745 0.757238
v -0.146852 -0.922639 0.369841
v -0.415762 1.081976 0.375126
v -0.743950 0.810431 0.486184
v -1.036216 0.459844 0.763199
v -0.945547 0.043736 0.811198
v -0.699982 -0.369982 0.699242
v -0.500405 -0.705867 0.516287
v -0.270615 -0.923828 0.271273
v -0.559200 1.117339 0.318574
v -0.902151 0.815569 0.306555
v -1.104457 0.466564 0.359759
v -1.083474 0.035001 0.410476
v -0.871638 -0.379737 0.358027
v -0.653281 -0.707107 0.270598
v -0.353553 -0.923880 0.146446
v -0.647727 1.174344 0.210246
v -1.020182 0.814657 0.119275
v -1.078025 0.440237 -0.015495
v -1.035619 0.049014 -0.047331
v -0.929105 -0.370273 -0.013725
v -0.707380 -0.706457 -0.000719
v -0.382683 -0.923880 -0.000000
v -0.679086 1.260003 0.043325
v -1.111433 0.853890 -0.168107
v -1.192987 0.365716 -0.336624
v -1.037249 0.013957 -0.438385
v -0.871761 -0.339444 -0.401375
v -0.657242 -0.697701 -0.281000
v -0.353575 -0.923828 -0.146503
v -0.611635 1.360967 -0.161976
v -1.062987 0.960526 -0.591275
v -1.174211 0.323398 -0.798481
v -0.970897 -0.128695 -0.812244
v -0.706151 -0.345281 -0.733077
v -0.510635 -0.681849 -0.527934
v -0.271258 -0.922313 -0.272331
v -0.420781 1.445184 -0.340539
v -0.735158 1.087713 -1.013688
v -0.804895 0.347851 -1.295377
v -0.641916 -0.240369 -1.187140
v -0.429708 -0.414976 -0.967165
v -0.287625 -0.666671 -0.698002
v -0.148035 -0.920106 -0.357726
v -0.139099 1.477993 -0.413098
v -0.186043 1.148920 -1.195733
v -0.019655 -0.660429 -0.758730
vn -0.0080 0.0765 -0.9970
vn 0.0308 -0.5773 -0.8159
vn 0.0430 -0.8174 -0.5744
vn 0.0013 -0.9086 -0.4177
vn 0.2599 0.9621 -0.0824
vn 0.4540 0.6570 -0.6019
vn 0.5566 0.0809 -0.8269
vn 0.5250 -0.5168 -0.6762
vn 0.4021 -0.7402 -0.5388
vn 0.3045 -0.7421 -0.5972
vn 0.1549 -0.9072 -0.3911
vn 0.4412 0.8953 0.0615
vn 0.7714 0.5688 -0.2853
vn 0.9195 0.0193 -0.3926
vn 0.8269 -0.3885 -0.4067
vn 0.6842 -0.5742 -0.4496
vn 0.5237 -0.6896 -0.5002
vn 0.2860 -0.9080 -0.3061
vn 0.5573 0.7700 0.3107
vn 0.9002 0.4077 0.1529
vn 0.9989 0.0472 -0.0045
vn 0.9628 -0.2275 -0.1460
vn 0.8639 -0.3962 -0.3108
vn 0.6762 -0.6749 -0.2953
vn 0.3769 -0.9108 -0.1687
vn 0.5575 0.6152 0.5575
vn 0.8333 0.4180 0.3619
vn 0.9618 0.2630 0.0759
vn 0.9537 -0.0181 -0.3002
vn 0.8377 -0.4889 -0.2435
vn 0.6978 -0.7126 -0.0723
vn 0.4054 -0.9141 -0.0068
vn 0.4806 0.6121 0.6279
vn 0.7085 0.5783 0.4045
vn 0.7502 0.6586 0.0598
vn 0.9959 -0.0162 -0.0893
vn 0.6984 -0.7153 0.0223
vn 0.5865 -0.7981 0.1382
vn 0.3685 -0.9210 0.1262
vn 0.3640 0.6815 0.6349
vn 0.5006 0.7749 0.3860
vn 0.5861 0.6591 0.4712
vn 0.8457 -0.0050 0.5337
vn 0.5520 -0.6413 0.5329
vn 0.4180 -0.8644 0.2794
vn 0.2785 -0.9343 0.2224
vn 0.1843 0.7161 0.6732
vn 0.1930 0.8898 0.4135
vn 0.2309 0.7370 0.6352
vn 0.2469 0.0673 0.9667
vn 0.1917 -0.7011 0.6868
vn 0.1317 -0.9173 0.3757
vn 0.1245 -0.9474 0.2947
vn 0.0161 0.7080 0.7060
vn -0.1081 0.8564 0.5048
vn -0.2240 0.5924 0.7739
vn -0.4010 -0.0345 0.9154
vn -0.3390 -0.5293 0.7778
vn -0.2249 -0.8504 0.4757
vn -0.0557 -0.9445 0.3236
vn -0.0006 -1.0000 -0.0071
vn 0.0386 0.8226 0.5673
vn -0.0950 0.6911 0.7165
vn -0.2669 0.7770 0.5702
vn -0.4715 0.4345 0.7674
vn -0.5887 -0.1397 0.7962
vn -0.5830 -0.4991 0.6410
vn -0.4086 -0.7616 0.5030
vn -0.1966 -0.9315 0.3060
vn -0.2253 0.6753 0.7023
vn -0.4709 0.6965 0.5414
vn -0.7720 0.3236 0.5470
vn -0.7621 -0.2637 0.5913
vn -0.6538 -0.5397 0.5304
vn -0.5313 -0.7304 0.4292
vn -0.2964 -0.9206 0.2543
vn -0.3776 0.6723 0.6367
vn -0.7124 0.5675 0.4129
vn -0.9636 0.2179 0.1547
vn -0.9534 -0.2674 0.1398
vn -0.8280 -0.5138 0.2245
vn -0.6602 -0.7105 0.2436
vn -0.3729 -0.9155 0.1508
vn -0.4895 0.7135 0.5013
vn -0.8542 0.4071 0.3235
vn -0.9879 -0.0076 0.1552
vn -0.9630 -0.2689 0.0178
vn -0.8909 -0.4533 -0.0268
vn -0.7167 -0.6973 -0.0095
vn -0.4043 -0.9146 -0.0032
vn -0.5223 0.7876 0.3269
vn -0.9045 0.3847 0.1840
vn -0.9897 -0.1059 0.0967
vn -0.9105 -0.4136 -0.0041
vn -0.8262 -0.5311 -0.1882
vn -0.6634 -0.7031 -0.2562
vn -0.3730 -0.9136 -0.1619
vn -0.4574 0.8807 0.1229
vn -0.8268 0.5219 -0.2098
vn -0.9414 -0.0742 -0.3292
vn -0.7884 -0.5386 -0.2972
vn -0.6216 -0.7143 -0.3215
vn -0.5136 -0.7375 -0.4386
vn -0.2843 -0.9121 -0.2953
vn -0.2761 0.9597 -0.0527
vn -0.5174 0.6328 -0.5761
vn -0.5884 0.0192 -0.8083
vn -0.4751 -0.5990 -0.6445
vn -0.3266 -0.8112 -0.4850
vn -0.2757 -0.7854 -0.5542
vn -0.1529 -0.9104 -0.3843
vn -0.0001 0.9914 -0.1305
vn -0.0200 0.6835 -0.7297
vn 0.0190 -0.7911 -0.6114
vt 0.750000 0.875000
vt 0.718750 1.000000
vt 0.687500 0.875000
vt 0.718750 0.000000
vt 0.750000 0.125000
vt 0.687500 0.125000
vt 0.750000 0.250000
vt 0.750000 0.375000
vt 0.687500 0.375000
vt 0.687500 0.250000
vt 0.750000 0.500000
vt 0.750000 0.625000
vt 0.687500 0.625000
vt 0.687500 0.500000
vt 0.750000 0.750000
vt 0.687500 0.750000
vt 0.625000 0.625000
vt 0.625000 0.500000
vt 0.625000 0.875000
vt 0.625000 0.750000
vt 0.625000 0.250000
vt 0.625000 0.125000
vt 0.625000 0.375000
vt 0.656250 1.000000
vt 0.656250 0.000000
vt 0.562500 0.250000
vt 0.562500 0.125000
vt 0.562500 0.500000
vt 0.562500 0.375000
vt 0.562500 0.750000
vt 0.562500 0.625000
vt 0.593750 1.000000
vt 0.562500 0.875000
vt 0.593750 0.000000
vt 0.500000 0.750000
vt 0.500000 0.625000
vt 0.531250 1.000000
vt 0.500000 0.875000
vt 0.531250 0.000000
vt 0.500000 0.125000
vt 0.500000 0.375000
vt 0.500000 0.250000
vt 0.500000 0.500000
vt 0.468750 0.000000
vt 0.437500 0.125000
vt 0.437500 0.375000
vt 0.437500 0.250000
vt 0.437500 0.625000
vt 0.437500 0.500000
vt 0.437500 0.875000
vt 0.437500 0.750000
vt 0.468750 1.000000
vt 0.375000 0.875000
vt 0.375000 0.750000
vt 0.375000 0.250000
vt 0.375000 0.125000
vt 0.375000 0.500000
vt 0.375000 0.375000
vt 0.375000 0.625000
vt 0.406250 1.000000
vt 0.406250 0.000000
vt 0.312500 0.250000
vt 0.312500 0.125000
vt 0.312500 0.500000
vt 0.312500 0.375000
vt 0.312500 0.750000
vt 0.312500 0.625000
vt 0.343750 1.000000
vt 0.312500 0.875000
vt 0.343750 0.000000
vt 0.281250 1.000000
vt 0.250000 0.875000
vt 0.281250 0.000000
vt 0.250000 0.125000
vt 0.250000 0.375000
vt 0.250000 0.250000
vt 0.250000 0.625000
vt 0.250000 0.500000
vt 0.250000 0.750000
vt 0.187500 0.375000
vt 0.187500 0.250000
vt 0.187500 0.625000
vt 0.187500 0.500000
vt 0.187500 0.875000
vt 0.187500 0.750000
vt 0.187500 0.125000
vt 0.218750 1.000000
vt 0.218750 0.000000
vt 0.125000 0.250000
vt 0.125000 0.125000
vt 0.125000 0.500000
vt 0.125000 0.375000
vt 0.125000 0.750000
vt 0.125000 0.625000
vt 0.156250 1.000000
vt 0.125000 0.875000
vt 0.156250 0.000000
vt 0.062500 0.500000
vt 0.062500 0.375000
vt 0.062500 0.750000
vt 0.062500 0.625000
vt 0.093750 1.000000
vt 0.062500 0.875000
vt 0.093750 0.000000
vt 0.062500 0.125000
vt 0.062500 0.250000
vt 0.031250 0.000000
vt 0.000000 0.125000
vt 0.000000 0.375000
vt 0.000000 0.250000
vt 0.000000 0.625000
vt 0.000000 0.500000
vt 0.000000 0.875000
vt 0.000000 0.750000
vt 0.031250 1.000000
vt 1.000000 0.500000
vt 1.000000 0.625000
vt 0.937500 0.625000
vt 0.937500 0.500000
vt 1.000000 0.750000
vt 1.000000 0.875000
vt 0.937500 0.875000
vt 0.937500 0.750000
vt 1.000000 0.125000
vt 1.000000 0.250000
vt 0.937500 0.250000
vt 0.937500 0.125000
vt 1.000000 0.375000
vt 0.937500 0.375000
vt 0.968750 1.000000
vt 0.968750 0.000000
vt 0.875000 0.250000
vt 0.875000 0.125000
vt 0.875000 0.500000
vt 0.875000 0.375000
vt 0.875000 0.750000
vt 0.875000 0.625000
vt 0.906250 1.000000
vt 0.875000 0.875000
vt 0.906250 0.000000
vt 0.812500 0.750000
vt 0.812500 0.625000
vt 0.843750 1.000000
vt 0.812500 0.875000
vt 0.843750 0.000000
vt 0.812500 0.125000
vt 0.812500 0.375000
vt 0.812500 0.250000
vt 0.812500 0.500000
vt 0.781250 0.000000
vt 0.781250 1.000000
s 1
f 112/1/112 62/2/62 5/3/5
f 61/4/61 4/5/4 11/6/11
f 114/7/114 3/8/3 9/9/9 10/10/10
f 2/11/2 1/12/1 7/13/7 8/14/8
f 113/15/113 112/1/112 5/3/5 6/16/6
f 4/5/4 114/7/114 10/10/10 11/6/11
f 3/8/3 2/11/2 8/14/8 9/9/9
f 1/12/1 113/15/113 6/16/6 7/13/7
f 8/14/8 7/13/7 14/17/14 15/18/15
f 6/16/6 5/3/5 12/19/12 13/20/13
f 11/6/11 10/10/10 17/21/17 18/22/18
f 9/9/9 8/14/8 15/18/15 16/23/16
f 7/13/7 6/16/6 13/20/13 14/17/14
f 5/3/5 62/24/62 12/19/12
f 61/25/61 11/6/11 18/22/18
f 10/10/10 9/9/9 16/23/16 17/21/17
f 18/22/18 17/21/17 24/26/24 25/27/25
f 16/23/16 15/18/15 22/28/22 23/29/23
f 14/17/14 13/20/13 20/30/20 21/31/21
f 12/19/12 62/32/62 19/33/19
f 61/34/61 18/22/18 25/27/25
f 17/21/17 16/23/16 23/29/23 24/26/24
f 15/18/15 14/17/14 21/31/21 22/28/22
f 13/20/13 12/19/12 19/33/19 20/30/20
f 21/31/21 20/30/20 27/35/27 28/36/28
f 19/33/19 62/37/62 26/38/26
f 61/39/61 25/27/25 32/40/32
f 24/26/24 23/29/23 30/41/30 31/42/31
f 22/28/22 21/31/21 28/36/28 29/43/29
f 20/30/20 19/33/19 26/38/26 27/35/27
f 25/27/25 24/26/24 31/42/31 32/40/32
f 23/29/23 22/28/22 29/43/29 30/41/30
f 61/44/61 32/40/32 39/45/39
f 31/42/31 30/41/30 37/46/37 38/47/38
f 29/43/29 28/36/28 35/48/35 36/49/36
f 27/35/27 26/38/26 33/50/33 34/51/34
f 32/40/32 31/42/31 38/47/38 39/45/39
f 30/41/30 29/43/29 36/49/36 37/46/37
f 28/36/28 27/35/27 34/51/34 35/48/35
f 26/38/26 62/52/62 33/50/33
f 34/51/34 33/50/33 40/53/40 41/54/41
f 39/45/39 38/47/38 45/55/45 46/56/46
f 37/46/37 36/49/36 43/57/43 44/58/44
f 35/48/35 34/51/34 41/54/41 42/59/42
f 33/50/33 62/60/62 40/53/40
f 61/61/61 39/45/39 46/56/46
f 38/47/38 37/46/37 44/58/44 45/55/45
f 36/49/36 35/48/35 42/59/42 43/57/43
f 46/56/46 45/55/45 52/62/52 53/63/53
f 44/58/44 43/57/43 50/64/50 51/65/51
f 42/59/42 41/54/41 48/66/48 49/67/49
f 40/53/40 62/68/62 47/69/47
f 61/70/61 46/56/46 53/63/53
f 45/55/45 44/58/44 51/65/51 52/62/52
f 43/57/43 42/59/42 49/67/49 50/64/50
f 41/54/41 40/53/40 47/69/47 48/66/48
f 47/69/47 62/71/62 54/72/54
f 61/73/61 53/63/53 60/74/60
f 52/62/52 51/65/51 58/75/58 59/76/59
f 50/64/50 49/67/49 56/77/56 57/78/57
f 48/66/48 47/69/47 54/72/54 55/79/55
f 53/63/53 52/62/52 59/76/59 60/74/60
f 51/65/51 50/64/50 57/78/57 58/75/58
f 49/67/49 48/66/48 55/79/55 56/77/56
f 59/76/59 58/75/58 67/80/67 68/81/68
f 57/78/57 56/77/56 65/82/65 66/83/66
f 55/79/55 54/72/54 63/84/63 64/85/64
f 60/74/60 59/76/59 68/81/68 69/86/69
f 58/75/58 57/78/57 66/83/66 67/80/67
f 56/77/56 55/79/55 64/85/64 65/82/65
f 54/72/54 62/87/62 63/84/63
f 61/88/61 60/74/60 69/86/69
f 69/86/69 68/81/68 75/89/75 76/90/76
f 67/80/67 66/83/66 73/91/73 74/92/74
f 65/82/65 64/85/64 71/93/71 72/94/72
f 63/84/63 62/95/62 70/96/70
f 61/97/61 69/86/69 76/90/76
f 68/81/68 67/80/67 74/92/74 75/89/75
f 66/83/66 65/82/65 72/94/72 73/91/73
f 64/85/64 63/84/63 70/96/70 71/93/71
f 74/92/74 73/91/73 80/98/80 81/99/81
f 72/94/72 71/93/71 78/100/78 79/101/79
f 70/96/70 62/102/62 77/103/77
f 61/104/61 76/90/76 83/105/83
f 75/89/75 74/92/74 81/99/81 82/106/82
f 73/91/73 72/94/72 79/101/79 80/98/80
f 71/93/71 70/96/70 77/103/77 78/100/78
f 76/90/76 75/89/75 82/106/82 83/105/83
f 61/107/61 83/105/83 90/108/90
f 82/106/82 81/99/81 88/109/88 89/110/89
f 80/98/80 79/101/79 86/111/86 87/112/87
f 78/100/78 77/103/77 84/113/84 85/114/85
f 83/105/83 82/106/82 89/110/89 90/108/90
f 81/99/81 80/98/80 87/112/87 88/109/88
f 79/101/79 78/100/78 85/114/85 86/111/86
f 77/103/77 62/115/62 84/113/84
f 87/116/87 86/117/86 93/118/93 94/119/94
f 85/120/85 84/121/84 91/122/91 92/123/92
f 90/124/90 89/125/89 96/126/96 97/127/97
f 88/128/88 87/116/87 94/119/94 95/129/95
f 86/117/86 85/120/85 92/123/92 93/118/93
f 84/121/84 62/130/62 91/122/91
f 61/131/61 90/124/90 97/127/97
f 89/125/89 88/128/88 95/129/95 96/126/96
f 97/127/97 96/126/96 103/132/103 104/133/104
f 95/129/95 94/119/94 101/134/101 102/135/102
f 93/118/93 92/123/92 99/136/99 100/137/100
f 91/122/91 62/138/62 98/139/98
f 61/140/61 97/127/97 104/133/104
f 96/126/96 95/129/95 102/135/102 103/132/103
f 94/119/94 93/118/93 100/137/100 101/134/101
f 92/123/92 91/122/91 98/139/98 99/136/99
f 100/137/100 99/136/99 106/141/106 107/142/107
f 98/139/98 62/143/62 105/144/105
f 61/145/61 104/133/104 111/146/111
f 103/132/103 102/135/102 109/147/109 110/148/110
f 101/134/101 100/137/100 107/142/107 108/149/108
f 99/136/99 98/139/98 105/144/105 106/141/106
f 104/133/104 103/132/103 110/148/110 111/146/111
f 102/135/102 101/134/101 108/149/108 109/147/109
f 61/150/61 111/146/111 4/5/4
f 110/148/110 109/147/109 3/8/3 114/7/114
f 108/149/108 107/142/107 1/12/1 2/11/2
f 106/141/106 105/144/105 112/1/112 113/15/113
f 111/146/111 110/148/110 114/7/114 4/5/4
f 109/147/109 108/149/108 2/11/2 3/8/3
f 107/142/107 106/141/106 113/15/113 1/12/1
f 105/144/105 62/151/62 112/1/112
